<svg version="1.1" id="Layer_1" xmlns="http://www.w3.org/2000/svg" xmlns:xlink="http://www.w3.org/1999/xlink" x="0px" y="0px"
	 width="100%" viewBox="0 0 500 500" enable-background="new 0 0 500 500" xml:space="preserve">
<path fill="#FFFFFF" opacity="1.000000" stroke="none" 
	d="
M267.000000,501.000000 
	C178.000015,501.000000 89.500046,501.000000 1.000047,501.000000 
	C1.000032,334.333405 1.000032,167.666794 1.000016,1.000137 
	C167.666565,1.000091 334.333130,1.000091 500.999756,1.000046 
	C500.999847,167.666519 500.999847,334.333038 500.999939,500.999786 
	C423.166656,501.000000 345.333344,501.000000 267.000000,501.000000 
M244.056244,269.204315 
	C248.979614,269.204315 253.902985,269.204315 259.063660,269.204315 
	C259.063660,279.956238 259.089996,289.936127 259.049072,299.915680 
	C259.035065,303.326599 259.932648,305.948914 263.932220,305.977539 
	C271.589661,306.032349 279.258118,306.194275 286.896973,305.811768 
	C288.403625,305.736328 289.797363,303.406952 291.876587,301.961334 
	C292.960907,300.945038 294.045197,299.928741 295.858612,298.837433 
	C296.908356,296.982849 298.861359,295.133972 298.873047,293.272827 
	C299.063904,262.990387 298.970795,232.706314 299.052551,202.422913 
	C299.064178,198.119659 297.072998,196.348907 293.033112,196.345108 
	C286.210999,196.338684 279.376923,196.120514 272.574402,196.485580 
	C270.653015,196.588684 268.823944,198.411819 266.293457,199.733673 
	C265.135559,201.080261 263.977631,202.426849 262.076996,203.906525 
	C261.071899,205.915527 259.297028,207.888153 259.200012,209.940063 
	C258.851044,217.323441 259.068268,224.733612 258.140137,232.311752 
	C253.222076,232.311752 248.304031,232.311752 242.973648,232.311752 
	C242.973648,222.079620 242.862732,212.469879 243.023392,202.864700 
	C243.096817,198.474091 241.327896,196.322296 236.921204,196.336029 
	C230.106903,196.357254 223.280640,196.120743 216.485748,196.484741 
	C214.573792,196.587158 212.753815,198.406937 210.228455,199.722137 
	C209.074890,201.065414 207.921310,202.408691 206.025467,203.890869 
	C205.022644,205.934464 203.204666,207.957504 203.152573,210.025055 
	C202.867493,221.337906 203.015411,232.661697 203.015533,243.981720 
	C203.015732,262.459991 203.038162,280.938354 202.998276,299.416534 
	C202.990738,302.904114 203.478363,305.936890 207.864975,305.976898 
	C215.521820,306.046722 223.190094,306.194336 230.828537,305.810577 
	C232.331863,305.735046 233.721878,303.404083 235.801743,301.951782 
	C236.899582,300.935242 237.997406,299.918701 239.823105,298.830414 
	C240.873108,296.832642 242.725250,294.876282 242.830994,292.829712 
	C243.237305,284.965240 243.083984,277.071838 244.056244,269.204315 
z"/>
<path fill="#7843E6" opacity="1.000000" stroke="none" 
	d="
M206.767746,203.751968 
	C207.921310,202.408691 209.074890,201.065414 211.024719,199.688782 
	C218.312912,199.678284 224.804840,199.695206 231.296722,199.725571 
	C238.490082,199.759216 239.006317,200.258392 239.020676,207.389008 
	C239.039337,216.657822 239.025223,225.926727 239.025223,235.731140 
	C246.554886,235.731140 253.510284,235.842896 260.452301,235.588852 
	C261.314423,235.557312 262.105469,233.583694 262.946350,232.004852 
	C262.915405,222.257614 262.867554,213.015533 262.819702,203.773438 
	C263.977631,202.426849 265.135559,201.080261 267.083130,199.696930 
	C273.849670,199.681213 279.826599,199.711288 285.803497,199.721161 
	C295.064636,199.736465 295.064148,199.730621 295.070038,208.754944 
	C295.089661,238.807434 295.109650,268.859924 295.129486,298.912415 
	C294.045197,299.928741 292.960907,300.945038 291.075928,301.990112 
	C284.456146,302.007324 278.637024,301.989380 272.817902,301.985474 
	C263.204895,301.979004 262.978516,301.761230 262.976501,292.291992 
	C262.974609,283.380066 262.976074,274.468109 262.976074,265.115631 
	C255.807449,265.115631 249.356567,265.115631 242.489288,265.133606 
	C239.102112,264.708069 238.987656,266.559814 239.004013,268.765778 
	C239.078537,278.810883 239.072372,288.856628 239.095245,298.902161 
	C237.997406,299.918701 236.899582,300.935242 235.005249,301.984070 
	C228.065598,302.005615 221.922440,301.992035 215.779297,301.984711 
	C207.291656,301.974579 206.959839,301.648956 206.944199,293.401245 
	C206.887543,263.518158 206.826889,233.635056 206.767746,203.751968 
z"/>
<path fill="#FA06FE" opacity="1.000000" stroke="none" 
	d="
M206.396606,203.821411 
	C206.826889,233.635056 206.887543,263.518158 206.944199,293.401245 
	C206.959839,301.648956 207.291656,301.974579 215.779297,301.984711 
	C221.922440,301.992035 228.065598,302.005615 234.686447,302.064819 
	C233.721878,303.404083 232.331863,305.735046 230.828537,305.810577 
	C223.190094,306.194336 215.521820,306.046722 207.864975,305.976898 
	C203.478363,305.936890 202.990738,302.904114 202.998276,299.416534 
	C203.038162,280.938354 203.015732,262.459991 203.015533,243.981720 
	C203.015411,232.661697 202.867493,221.337906 203.152573,210.025055 
	C203.204666,207.957504 205.022644,205.934464 206.396606,203.821411 
z"/>
<path fill="#10F3FD" opacity="1.000000" stroke="none" 
	d="
M295.494049,298.874939 
	C295.109650,268.859924 295.089661,238.807434 295.070038,208.754944 
	C295.064148,199.730621 295.064636,199.736465 285.803497,199.721161 
	C279.826599,199.711288 273.849670,199.681213 267.412659,199.553131 
	C268.823944,198.411819 270.653015,196.588684 272.574402,196.485580 
	C279.376923,196.120514 286.210999,196.338684 293.033112,196.345108 
	C297.072998,196.348907 299.064178,198.119659 299.052551,202.422913 
	C298.970795,232.706314 299.063904,262.990387 298.873047,293.272827 
	C298.861359,295.133972 296.908356,296.982849 295.494049,298.874939 
z"/>
<path fill="#10F3FD" opacity="1.000000" stroke="none" 
	d="
M262.929443,232.509979 
	C262.105469,233.583694 261.314423,235.557312 260.452301,235.588852 
	C253.510284,235.842896 246.554886,235.731140 239.025223,235.731140 
	C239.025223,225.926727 239.039337,216.657822 239.020676,207.389008 
	C239.006317,200.258392 238.490082,199.759216 231.296722,199.725571 
	C224.804840,199.695206 218.312912,199.678284 211.356323,199.547211 
	C212.753815,198.406937 214.573792,196.587158 216.485748,196.484741 
	C223.280640,196.120743 230.106903,196.357254 236.921204,196.336029 
	C241.327896,196.322296 243.096817,198.474091 243.023392,202.864700 
	C242.862732,212.469879 242.973648,222.079620 242.973648,232.311752 
	C248.304031,232.311752 253.222076,232.311752 258.978577,232.337662 
	C260.854492,232.412384 261.891968,232.461182 262.929443,232.509979 
z"/>
<path fill="#FA06FE" opacity="1.000000" stroke="none" 
	d="
M242.905701,265.115631 
	C249.356567,265.115631 255.807449,265.115631 262.976074,265.115631 
	C262.976074,274.468109 262.974609,283.380066 262.976501,292.291992 
	C262.978516,301.761230 263.204895,301.979004 272.817902,301.985474 
	C278.637024,301.989380 284.456146,302.007324 290.759216,302.067993 
	C289.797363,303.406952 288.403625,305.736328 286.896973,305.811768 
	C279.258118,306.194275 271.589661,306.032349 263.932220,305.977539 
	C259.932648,305.948914 259.035065,303.326599 259.049072,299.915680 
	C259.089996,289.936127 259.063660,279.956238 259.063660,269.204315 
	C253.902985,269.204315 248.979614,269.204315 243.518845,268.792053 
	C242.956192,267.291748 242.930939,266.203705 242.905701,265.115631 
z"/>
<path fill="#10F3FD" opacity="1.000000" stroke="none" 
	d="
M242.489288,265.133606 
	C242.930939,266.203705 242.956192,267.291748 243.060425,268.784546 
	C243.083984,277.071838 243.237305,284.965240 242.830994,292.829712 
	C242.725250,294.876282 240.873108,296.832642 239.459167,298.866272 
	C239.072372,288.856628 239.078537,278.810883 239.004013,268.765778 
	C238.987656,266.559814 239.102112,264.708069 242.489288,265.133606 
z"/>
<path fill="#FA06FE" opacity="1.000000" stroke="none" 
	d="
M262.946350,232.004852 
	C261.891968,232.461182 260.854492,232.412384 259.444275,232.248611 
	C259.068268,224.733612 258.851044,217.323441 259.200012,209.940063 
	C259.297028,207.888153 261.071899,205.915527 262.448364,203.839981 
	C262.867554,213.015533 262.915405,222.257614 262.946350,232.004852 
z"/>
</svg>