<svg version="1.1" id="Layer_1" xmlns="http://www.w3.org/2000/svg" xmlns:xlink="http://www.w3.org/1999/xlink" x="0px" y="0px"
	 width="100%" viewBox="0 0 500 500" enable-background="new 0 0 500 500" xml:space="preserve">
<path fill="#FFFFFF" opacity="1.000000" stroke="none" 
	d="
M273.000000,501.000000 
	C182.000015,501.000000 91.500046,501.000000 1.000049,501.000000 
	C1.000032,334.333405 1.000032,167.666794 1.000016,1.000138 
	C167.666565,1.000092 334.333130,1.000092 500.999756,1.000046 
	C500.999847,167.666519 500.999847,334.333038 500.999939,500.999786 
	C425.166656,501.000000 349.333344,501.000000 273.000000,501.000000 
M228.114029,302.153168 
	C243.540344,302.153168 258.966675,302.153168 274.909943,302.153168 
	C274.909943,304.482300 274.909912,306.271179 274.909943,308.060059 
	C274.910461,336.516144 274.880981,364.972321 274.925385,393.428314 
	C274.944733,405.835327 278.925690,409.793274 291.434723,409.837830 
	C309.573151,409.902435 327.712036,409.868286 345.850708,409.846741 
	C349.675415,409.842224 353.526886,409.971008 357.318848,409.580383 
	C364.422089,408.848724 367.051117,406.346252 369.658173,399.105682 
	C375.761230,398.491180 378.558441,394.458313 380.792084,389.042603 
	C386.290192,388.277130 389.422974,384.978455 390.354950,379.671692 
	C390.840027,376.909637 390.976227,374.055969 390.977234,371.243591 
	C391.007843,283.636993 391.002777,196.030396 390.998535,108.423790 
	C390.998444,106.592239 391.029022,104.754555 390.898773,102.930183 
	C390.302521,94.579994 386.397247,90.250465 377.970093,90.155235 
	C355.156189,89.897446 332.335938,89.924355 309.521454,90.156746 
	C302.036316,90.232986 298.865631,93.203262 296.412750,100.278755 
	C290.585144,101.423721 287.124054,104.953354 285.134613,110.839554 
	C277.584137,112.732765 275.027283,115.896194 274.984161,124.488159 
	C274.866272,147.973434 274.928284,171.459610 274.003937,195.107712 
	C258.434113,195.107712 242.864288,195.107712 227.033432,195.107712 
	C227.033432,192.553680 227.033951,190.739410 227.033340,188.925125 
	C227.023834,160.773972 227.077347,132.622559 226.969406,104.471779 
	C226.932922,94.960251 222.995544,90.276299 214.080566,90.162796 
	C191.264267,89.872314 168.440582,89.935822 145.622452,90.142929 
	C138.172806,90.210533 135.087097,93.070366 132.510406,100.295807 
	C126.544144,101.301857 123.319862,105.083145 121.180428,110.843529 
	C113.135338,112.866676 111.006531,116.181244 111.004967,127.040703 
	C110.992180,215.626801 110.990570,304.212891 111.004997,392.798981 
	C111.007126,405.916046 114.871002,409.812134 127.924385,409.841095 
	C148.072632,409.885803 168.221039,409.860443 188.369370,409.841034 
	C190.196854,409.839294 192.042908,409.799194 193.848206,409.546906 
	C200.593323,408.604279 203.181473,406.165100 205.689713,399.108398 
	C211.752441,398.455170 214.668365,394.546204 216.831055,389.048218 
	C224.130280,387.278809 226.942627,383.545288 226.991394,374.843262 
	C227.127182,350.613617 227.140625,326.383240 228.114029,302.153168 
z"/>
<path fill="#7843E6" opacity="1.000000" stroke="none" 
	d="
M216.072418,389.073059 
	C214.668365,394.546204 211.752441,398.455170 204.853058,399.147644 
	C181.046356,399.177307 158.075821,399.247955 135.106445,399.118134 
	C126.108040,399.067291 122.247726,394.970184 121.990906,385.879333 
	C121.920418,383.384308 121.951630,380.886139 121.951530,378.389435 
	C121.947945,289.171417 121.946167,199.953430 121.944138,110.735428 
	C123.319862,105.083145 126.544144,101.301857 133.295380,100.173309 
	C156.547546,100.039818 179.015106,99.951187 201.481781,100.053459 
	C211.408020,100.098640 215.724121,104.516502 216.064667,114.375854 
	C216.122070,116.038414 216.110657,117.703766 216.110809,119.367828 
	C216.113373,145.995895 216.112625,172.623962 216.112640,199.252029 
	C216.112640,201.035080 216.112640,202.818130 216.112640,204.863998 
	C239.534637,204.863998 262.399323,204.863998 285.879852,204.863998 
	C285.879852,201.482544 285.879852,198.366394 285.882141,194.765594 
	C285.885315,166.428696 285.886200,138.576447 285.887085,110.724213 
	C287.124054,104.953354 290.585144,101.423721 297.201782,100.169716 
	C318.967957,100.042343 339.945099,100.018120 360.922272,100.007576 
	C376.942993,99.999527 380.072510,103.164162 380.070953,119.359428 
	C380.062378,209.261383 380.050751,299.163330 380.040192,389.065277 
	C378.558441,394.458313 375.761230,398.491180 368.821655,399.144104 
	C345.849487,399.191437 323.713715,399.245453 301.578247,399.191284 
	C289.450470,399.161621 285.910522,395.550568 285.897156,383.355042 
	C285.866028,354.894684 285.885437,326.434265 285.884399,297.973877 
	C285.884338,296.198761 285.884430,294.423645 285.884430,292.092834 
	C265.824615,292.092834 246.398956,292.092834 226.514099,292.106567 
	C222.822784,292.120300 219.590683,292.120300 216.072418,292.120300 
	C216.072418,325.017914 216.072418,357.045502 216.072418,389.073059 
z"/>
<path fill="#FD03FF" opacity="1.000000" stroke="none" 
	d="
M121.562286,110.789474 
	C121.946167,199.953430 121.947945,289.171417 121.951530,378.389435 
	C121.951630,380.886139 121.920418,383.384308 121.990906,385.879333 
	C122.247726,394.970184 126.108040,399.067291 135.106445,399.118134 
	C158.075821,399.247955 181.046356,399.177307 204.473083,399.245422 
	C203.181473,406.165100 200.593323,408.604279 193.848206,409.546906 
	C192.042908,409.799194 190.196854,409.839294 188.369370,409.841034 
	C168.221039,409.860443 148.072632,409.885803 127.924385,409.841095 
	C114.871002,409.812134 111.007126,405.916046 111.004997,392.798981 
	C110.990570,304.212891 110.992180,215.626801 111.004967,127.040703 
	C111.006531,116.181244 113.135338,112.866676 121.562286,110.789474 
z"/>
<path fill="#02FDFF" opacity="1.000000" stroke="none" 
	d="
M380.416138,389.053955 
	C380.050751,299.163330 380.062378,209.261383 380.070953,119.359428 
	C380.072510,103.164162 376.942993,99.999527 360.922272,100.007576 
	C339.945099,100.018120 318.967957,100.042343 297.528503,100.016235 
	C298.865631,93.203262 302.036316,90.232986 309.521454,90.156746 
	C332.335938,89.924355 355.156189,89.897446 377.970093,90.155235 
	C386.397247,90.250465 390.302521,94.579994 390.898773,102.930183 
	C391.029022,104.754555 390.998444,106.592239 390.998535,108.423790 
	C391.002777,196.030396 391.007843,283.636993 390.977234,371.243591 
	C390.976227,374.055969 390.840027,376.909637 390.354950,379.671692 
	C389.422974,384.978455 386.290192,388.277130 380.416138,389.053955 
z"/>
<path fill="#03FDFF" opacity="1.000000" stroke="none" 
	d="
M285.879852,195.250275 
	C285.879852,198.366394 285.879852,201.482544 285.879852,204.863998 
	C262.399323,204.863998 239.534637,204.863998 216.112640,204.863998 
	C216.112640,202.818130 216.112640,201.035080 216.112640,199.252029 
	C216.112625,172.623962 216.113373,145.995895 216.110809,119.367828 
	C216.110657,117.703766 216.122070,116.038414 216.064667,114.375854 
	C215.724121,104.516502 211.408020,100.098640 201.481781,100.053459 
	C179.015106,99.951187 156.547546,100.039818 133.625122,100.012115 
	C135.087097,93.070366 138.172806,90.210533 145.622452,90.142929 
	C168.440582,89.935822 191.264267,89.872314 214.080566,90.162796 
	C222.995544,90.276299 226.932922,94.960251 226.969406,104.471779 
	C227.077347,132.622559 227.023834,160.773972 227.033340,188.925125 
	C227.033951,190.739410 227.033432,192.553680 227.033432,195.107712 
	C242.864288,195.107712 258.434113,195.107712 274.916443,195.122147 
	C279.179260,195.174469 282.529572,195.212372 285.879852,195.250275 
z"/>
<path fill="#FC03FF" opacity="1.000000" stroke="none" 
	d="
M226.973312,292.092834 
	C246.398956,292.092834 265.824615,292.092834 285.884430,292.092834 
	C285.884430,294.423645 285.884338,296.198761 285.884399,297.973877 
	C285.885437,326.434265 285.866028,354.894684 285.897156,383.355042 
	C285.910522,395.550568 289.450470,399.161621 301.578247,399.191284 
	C323.713715,399.245453 345.849487,399.191437 368.438843,399.238678 
	C367.051117,406.346252 364.422089,408.848724 357.318848,409.580383 
	C353.526886,409.971008 349.675415,409.842224 345.850708,409.846741 
	C327.712036,409.868286 309.573151,409.902435 291.434723,409.837830 
	C278.925690,409.793274 274.944733,405.835327 274.925385,393.428314 
	C274.880981,364.972321 274.910461,336.516144 274.909943,308.060059 
	C274.909912,306.271179 274.909943,304.482300 274.909943,302.153168 
	C258.966675,302.153168 243.540344,302.153168 227.581863,301.691772 
	C227.024246,298.184540 226.998779,295.138702 226.973312,292.092834 
z"/>
<path fill="#03FBFE" opacity="1.000000" stroke="none" 
	d="
M226.514099,292.106567 
	C226.998779,295.138702 227.024246,298.184540 227.126038,301.691772 
	C227.140625,326.383240 227.127182,350.613617 226.991394,374.843262 
	C226.942627,383.545288 224.130280,387.278809 216.451736,389.060638 
	C216.072418,357.045502 216.072418,325.017914 216.072418,292.120300 
	C219.590683,292.120300 222.822784,292.120300 226.514099,292.106567 
z"/>
<path fill="#FB03FE" opacity="1.000000" stroke="none" 
	d="
M285.882141,194.765594 
	C282.529572,195.212372 279.179260,195.174469 275.374023,195.041016 
	C274.928284,171.459610 274.866272,147.973434 274.984161,124.488159 
	C275.027283,115.896194 277.584137,112.732765 285.510864,110.781883 
	C285.886200,138.576447 285.885315,166.428696 285.882141,194.765594 
z"/>
</svg>